<svg width="29" height="28" viewBox="0 0 29 28" fill="none" xmlns="http://www.w3.org/2000/svg">
<path fill-rule="evenodd" clip-rule="evenodd" d="M1 1.5C1 1.22386 1.22386 1 1.5 1H13.5V5.5C13.5 6.32843 14.1716 7 15 7H19.5V13.5472L14.1771 18.6387C14.0746 18.7367 14.0226 18.8684 14.0227 19.0005C13.9798 18.9986 13.9363 19.0021 13.8932 19.0115C13.7135 19.0508 13.5698 19.1857 13.5192 19.3626L12.6229 22.5H4C3.72386 22.5 3.5 22.7239 3.5 23C3.5 23.2761 3.72386 23.5 4 23.5H13H16H17C17.1953 23.5 17.3727 23.3863 17.4543 23.2089C17.4851 23.1419 17.5001 23.0705 17.5 22.9995C17.5013 22.9995 17.5025 22.9996 17.5038 22.9996C17.6431 23.0049 17.7782 22.9518 17.8766 22.8532L19.5 21.2265V26.5C19.5 26.7761 19.2761 27 19 27H1.5C1.22386 27 1 26.7761 1 26.5V1.5ZM20.5 20.2244V26.5C20.5 27.3284 19.8284 28 19 28H1.5C0.671573 28 0 27.3284 0 26.5V1.5C0 0.671573 0.671573 0 1.5 0H14H14.0601C14.4806 0 14.8817 0.17647 15.1658 0.486413L20.1057 5.8754C20.3593 6.15204 20.5 6.51369 20.5 6.88898V12.5907L23.7409 9.49075C24.723 8.55133 26.2757 8.56857 27.2367 9.52958L27.4408 9.73369C28.4164 10.7093 28.4172 12.2908 27.4426 13.2674L20.5 20.2244ZM20.5 13.9745L24.4321 10.2134C25.0214 9.64974 25.953 9.66009 26.5296 10.2367L26.7337 10.4408C27.3191 11.0262 27.3195 11.9751 26.7348 12.561L20.5 18.8087V13.9745ZM19.5 14.931V19.8108L17.5506 21.7642L15.2105 19.0341L19.5 14.931ZM18.8634 6L14.5 1.23995V5.5C14.5 5.77614 14.7239 6 15 6H18.8634ZM3.5 5.5C3.5 5.22386 3.72386 5 4 5H10.5C10.7761 5 11 5.22386 11 5.5C11 5.77614 10.7761 6 10.5 6H4C3.72386 6 3.5 5.77614 3.5 5.5ZM3.5 19C3.5 18.7239 3.72386 18.5 4 18.5H10.5C10.7761 18.5 11 18.7239 11 19C11 19.2761 10.7761 19.5 10.5 19.5H4C3.72386 19.5 3.5 19.2761 3.5 19ZM4 9C3.72386 9 3.5 9.22386 3.5 9.5C3.5 9.77614 3.72386 10 4 10H16C16.2761 10 16.5 9.77614 16.5 9.5C16.5 9.22386 16.2761 9 16 9H4ZM3.5 14C3.5 13.7239 3.72386 13.5 4 13.5H16C16.2761 13.5 16.5 13.7239 16.5 14C16.5 14.2761 16.2761 14.5 16 14.5H4C3.72386 14.5 3.5 14.2761 3.5 14ZM14.2254 20.5312L15.9129 22.5H13.6629L14.2254 20.5312Z" fill="url(#paint0_linear_15_50)"/>
<defs>
<linearGradient id="paint0_linear_15_50" x1="-1.5" y1="30" x2="21.5" y2="3.5" gradientUnits="userSpaceOnUse">
<stop stop-color="#C5533A"/>
<stop offset="1" stop-color="#F6DD74"/>
</linearGradient>
</defs>
</svg>
